PathFileType	4	(X/Y/Z)	D:/83_35.trc
DataRate	CameraRate	NumFrames	NumMarkers	Units	OrigDataRate	OrigDataStartFrame	OrigNumFrames
120.00	120.00	7	41	mm	120.00	361	1048
Frame#	Time	LFWT			RFWT			LBWT			RBWT			LTHI			LKNE			LSHN			LANK			LHEE			LMT5			LTOE			RTHI			RKNE			RSHN			RANK			RHEE			RMT5			RTOE			CLAV			STRN			C7			T10			RBAC			LFHD			RFHD			LBHD			RBHD			LSHO			LUPA			LELB			LFRM			LWRA			LWRB			LFIN			RSHO			RUPA			RELB			RFRM			RWRA			RWRB			RFIN
		X1	Y1	Z1	X2	Y2	Z2	X3	Y3	Z3	X4	Y4	Z4	X5	Y5	Z5	X6	Y6	Z6	X7	Y7	Z7	X8	Y8	Z8	X9	Y9	Z9	X10	Y10	Z10	X11	Y11	Z11	X12	Y12	Z12	X13	Y13	Z13	X14	Y14	Z14	X15	Y15	Z15	X16	Y16	Z16	X17	Y17	Z17	X18	Y18	Z18	X19	Y19	Z19	X20	Y20	Z20	X21	Y21	Z21	X22	Y22	Z22	X23	Y23	Z23	X24	Y24	Z24	X25	Y25	Z25	X26	Y26	Z26	X27	Y27	Z27	X28	Y28	Z28	X29	Y29	Z29	X30	Y30	Z30	X31	Y31	Z31	X32	Y32	Z32	X33	Y33	Z33	X34	Y34	Z34	X35	Y35	Z35	X36	Y36	Z36	X37	Y37	Z37	X38	Y38	Z38	X39	Y39	Z39	X40	Y40	Z40	X41	Y41	Z41

263	2.183	1486.78857	370.64404	881.64136	1511.48840	633.60577	849.85431	1654.80652	406.40445	955.80402	1660.33997	546.78741	951.50806	1499.87451	324.86819	593.81610	1477.31750	359.33044	443.65961	1478.11841	349.08728	208.03053	1493.00403	377.65677	75.42846	1548.55066	421.37582	57.62814	1391.88269	357.60864	37.94717	1354.76111	443.80145	56.71586	1608.97815	645.04211	643.90009	1635.41907	606.30841	422.01984	1708.60229	629.04181	329.21887	1840.84497	570.68146	88.47443	1911.79016	519.85077	64.25339	1749.45020	600.18365	33.53040	1705.56030	527.46320	49.49749	1449.72937	459.69586	1287.19202	1458.26135	471.28113	1109.18274	1563.60828	464.19308	1385.61475	1664.84741	488.02618	1184.80688	1640.00586	558.89111	1276.04578	1341.12024	365.48929	1499.11328	1341.28259	526.68439	1504.09521	1493.02197	396.65948	1501.09583	1494.78540	506.90857	1508.00696	1537.96436	321.40475	1364.85168	1628.79858	254.53479	1160.15625	1669.10278	254.22549	1069.02197	1702.26318	243.87892	904.96674	1595.93152	235.50505	788.47534	1737.13269	203.57433	805.43024	1658.59460	205.08086	731.44489	1510.44507	615.68530	1366.70874	1544.82007	694.27295	1256.94971	1612.83057	712.00134	1066.49255	1618.30969	704.31860	990.01117	1432.32703	707.05829	823.99438	1562.11438	765.35425	791.71924	1527.19678	751.66071	758.04272
264	2.192	1481.11377	369.41443	881.62451	1506.71948	632.61194	850.72113	1649.65979	405.06955	956.14807	1655.55713	545.52228	952.13257	1496.47961	323.92169	593.33630	1475.17456	358.58453	443.70636	1477.31201	348.87088	207.61198	1492.49524	377.61368	75.63006	1548.56018	421.58945	57.62404	1391.82410	357.46518	37.98262	1354.75317	444.01544	56.74001	1602.95129	644.36908	644.63245	1627.49255	605.85626	422.21350	1702.16992	628.88660	330.65317	1839.00317	571.33710	93.62618	1910.45166	520.22607	70.04829	1748.62488	599.94128	34.46774	1704.78088	527.30383	49.50460	1445.28467	458.52432	1287.80750	1453.28540	469.90079	1110.04041	1559.15076	462.77304	1386.20410	1660.61365	486.02835	1185.53259	1635.22461	557.40076	1276.45313	1336.60864	364.31482	1500.13623	1337.00854	525.45001	1505.16980	1488.54272	395.24902	1501.90247	1490.45679	505.57336	1508.77490	1533.24646	319.94623	1365.67004	1623.85547	253.34444	1160.63452	1664.06018	253.05316	1069.33899	1696.04797	242.96065	905.08850	1588.65271	235.33171	788.78308	1730.04016	202.79723	805.00598	1651.13831	204.43887	731.71698	1506.18298	614.20251	1367.30701	1539.95190	692.97021	1257.68140	1608.70569	711.27979	1067.35449	1614.12659	703.84521	991.22736	1428.20959	706.68848	824.68396	1557.60498	765.05493	792.83344	1523.02527	751.28326	759.57104
265	2.200	1476.55872	368.66513	881.50897	1502.06116	631.70795	851.68109	1644.48303	403.76440	956.45026	1650.47546	544.21503	952.45258	1493.24561	322.73990	593.00946	1472.94824	357.76715	443.54138	1476.85095	348.68829	207.38536	1492.30298	377.60300	75.50615	1548.70435	421.51999	57.74732	1391.77588	357.26843	37.99087	1354.77502	444.14377	56.71302	1596.07874	643.58020	645.12372	1619.47546	605.54987	422.49570	1695.40845	628.89655	332.46350	1835.40417	571.24866	96.62772	1909.09131	520.43799	76.01173	1747.90271	599.70886	35.49662	1703.72217	527.36359	49.60230	1440.74939	457.36594	1288.63220	1448.42908	468.66266	1110.60657	1554.59973	461.36505	1386.77063	1655.29236	482.54840	1185.68494	1630.53296	555.87933	1276.84485	1331.82996	363.35004	1501.36548	1332.62170	524.42267	1506.44385	1483.81421	393.93933	1502.59827	1485.98865	504.27072	1509.41370	1528.62134	318.72913	1366.28271	1618.89050	252.08490	1161.13318	1658.78528	251.83426	1069.66223	1689.67773	241.88112	905.22772	1581.05249	234.71291	789.83295	1722.71472	201.65471	804.53540	1643.48474	203.67084	732.16064	1501.51147	612.69806	1367.87280	1535.18738	691.52631	1258.48108	1604.55957	710.58893	1068.53052	1610.16089	703.35571	992.46594	1424.18835	706.56049	825.73541	1553.56787	765.04944	794.10333	1519.15027	751.14514	760.95990
266	2.208	1471.95081	367.46991	881.89618	1497.33557	630.57056	852.76556	1639.63757	402.67978	957.08838	1645.29260	543.00073	952.87469	1490.40234	321.69772	592.97974	1470.50708	356.99368	442.72235	1476.28943	348.41644	207.15167	1492.31030	377.65317	75.37285	1548.65002	421.43347	57.75710	1391.73438	357.19238	37.82761	1354.64478	444.07159	56.61728	1588.94116	642.74121	645.54340	1610.65430	605.58453	422.90060	1688.18665	628.96619	334.31464	1832.16541	571.75140	99.96368	1906.69604	520.67737	81.93848	1747.36353	599.51904	36.49728	1702.49988	527.39001	49.60880	1435.73267	455.91196	1289.35706	1443.33508	467.28473	1111.17493	1549.80664	459.93945	1387.46582	1651.65881	482.39282	1186.41467	1625.89783	554.20917	1277.52686	1326.91919	362.70938	1501.91846	1328.15662	523.72754	1506.66028	1478.98914	392.76968	1503.45520	1481.45190	503.33087	1509.98254	1523.93262	317.34766	1366.84021	1613.82043	250.61261	1161.62390	1653.38293	250.60365	1069.98206	1683.17175	240.66342	905.51086	1573.42896	233.96275	791.15540	1715.26514	200.30412	804.18915	1635.43250	202.85513	732.47913	1496.87744	611.16852	1368.53613	1531.21948	690.15393	1259.47583	1600.39807	709.67487	1069.59436	1606.23401	702.73608	993.52350	1420.43701	706.68433	827.01312	1550.08398	765.09753	795.38635	1515.50305	751.57373	761.83478
267	2.217	1467.02747	366.33185	882.45032	1492.26050	629.22113	853.87476	1634.94678	401.71088	957.63007	1640.39282	541.97058	953.61578	1487.48267	320.92188	592.81097	1468.07507	356.09494	442.36801	1475.48010	348.07401	206.93143	1492.21704	377.75394	75.23622	1548.27429	421.41949	57.60944	1391.51379	357.02838	37.39599	1354.42126	443.99716	56.50511	1582.00293	642.11743	646.11945	1600.89661	606.16217	423.09100	1680.16565	628.90411	335.70193	1829.26489	572.28107	104.07610	1903.32825	520.80719	88.26709	1747.17664	599.37000	37.27891	1701.38904	527.17346	49.29881	1430.83569	454.49402	1289.99390	1438.08105	465.85077	1112.15857	1545.01025	458.42758	1388.03259	1646.75793	481.02548	1186.53394	1621.10754	552.43207	1278.14099	1322.42493	361.54242	1502.67102	1323.57593	522.51099	1507.24072	1474.47327	391.54993	1504.17334	1476.86401	502.43304	1510.53394	1518.79480	315.78665	1367.56555	1608.58997	249.12856	1162.25415	1648.05518	249.32405	1070.44604	1676.51746	239.42665	905.50220	1565.61206	233.65842	791.99658	1707.76147	199.06262	804.05127	1627.21094	201.95413	732.93042	1492.68030	609.69073	1369.37585	1527.48547	688.82727	1260.33984	1596.53467	708.76245	1070.64685	1602.21387	701.88647	994.41815	1416.63318	706.91925	828.22089	1546.68823	765.36987	796.63281	1511.53406	751.78375	762.75446
268	2.225	1461.61755	365.60895	882.96881	1486.96155	627.90387	854.80884	1629.95544	400.66138	957.95490	1635.44714	540.96454	954.15497	1484.51709	320.06812	592.58057	1465.75940	355.02771	442.43643	1474.46411	347.74655	206.58493	1492.03857	377.79004	75.21478	1548.09692	421.42261	57.57529	1391.32446	356.85251	37.01660	1354.37781	443.93274	56.38279	1574.90283	641.62744	646.42474	1590.84558	606.74628	423.46622	1671.97693	629.05334	337.06030	1825.73352	572.35461	108.49738	1899.95361	520.85681	95.49879	1746.53735	598.88251	38.07023	1700.79492	527.09528	49.10942	1426.30920	453.39539	1290.75952	1433.23169	464.67163	1113.23157	1540.56348	456.81616	1388.54272	1641.51721	478.91397	1186.82117	1616.59900	550.75446	1278.52344	1317.86084	360.23975	1503.25586	1319.03333	521.15582	1507.66675	1469.91113	390.31601	1504.69360	1472.29395	501.05939	1510.85132	1513.72559	314.25677	1368.17224	1603.46118	247.71217	1162.87842	1642.54663	248.03896	1070.86670	1669.71802	238.24788	905.20996	1557.81226	233.44070	792.60931	1699.90735	197.80016	803.91425	1618.64722	201.30766	733.30853	1488.58044	608.17682	1370.11609	1523.56921	687.48486	1261.21570	1592.81042	707.75220	1071.91821	1598.42078	701.02112	995.53986	1412.83044	707.18719	829.37384	1543.03003	765.64868	797.74402	1507.18884	751.57104	764.14673
269	2.233	1457.03552	364.56296	882.11041	1481.48657	626.77222	855.62341	1624.61243	399.73984	958.16077	1630.43677	539.98083	954.58173	1481.63000	319.09772	592.45575	1463.25879	354.24045	442.12863	1473.38599	347.44656	206.10216	1491.71802	377.73581	75.33768	1548.13940	420.98355	57.86602	1391.32849	356.81244	36.80570	1354.52002	443.89725	56.54160	1567.33728	641.21820	646.65997	1580.30713	606.98651	423.87799	1663.83032	629.34106	338.77585	1821.90833	572.45807	113.39677	1896.34509	520.90552	103.02174	1745.28394	598.14648	39.08525	1700.34424	527.08411	49.09933	1421.62292	452.27585	1291.48499	1428.75513	463.60327	1113.82446	1535.99622	455.13446	1388.92480	1636.52295	476.75299	1187.35303	1612.43335	548.97479	1278.90625	1313.20569	359.17508	1504.39587	1314.75439	520.03528	1508.43262	1465.30542	389.04242	1505.30383	1467.93372	499.52200	1511.08618	1508.83618	312.72498	1368.65845	1598.25830	246.23932	1163.20813	1637.02625	246.76994	1071.01892	1662.90808	236.78706	905.19940	1550.23767	232.77000	793.59583	1691.88831	196.20042	803.59137	1609.74500	200.78241	733.52423	1484.26917	606.58612	1370.56592	1519.96008	686.14856	1262.12317	1589.26233	706.52594	1073.01013	1595.11182	700.20038	996.81714	1409.24487	707.51978	830.52991	1539.47339	765.80328	798.93280	1503.17151	751.51001	765.40613
